<svg width="352" height="71" viewBox="0 0 352 71" fill="none" xmlns="http://www.w3.org/2000/svg">
<path d="M25.6 63L7.5 10.8L15.5 10.7L29.6 53.2L27.1 53L42.4 18.8H46.9L62.3 53L59.3 53.2L73.7 10.8H81.6L63.5 63H59.1L42.9 25.8L45.9 26L30.2 63H25.6ZM112.084 64C106.884 64 102.25 62.8333 98.1836 60.5C94.1836 58.1667 91.0169 54.9333 88.6836 50.8C86.4169 46.6667 85.2836 41.9667 85.2836 36.7C85.2836 31.5 86.4169 26.8667 88.6836 22.8C91.0169 18.7333 94.1836 15.5333 98.1836 13.2C102.25 10.8667 106.884 9.69999 112.084 9.69999C117.217 9.69999 121.784 10.8667 125.784 13.2C129.85 15.5333 133.017 18.7333 135.284 22.8C137.617 26.8667 138.784 31.5 138.784 36.7C138.784 41.9667 137.617 46.6667 135.284 50.8C133.017 54.9333 129.85 58.1667 125.784 60.5C121.784 62.8333 117.217 64 112.084 64ZM112.084 56.9C115.75 56.9 119.017 56.0333 121.884 54.3C124.75 52.5 126.984 50.1 128.584 47.1C130.184 44.0333 130.984 40.5667 130.984 36.7C130.984 32.8333 130.184 29.4 128.584 26.4C126.984 23.4 124.75 21.0667 121.884 19.4C119.017 17.6667 115.75 16.8 112.084 16.8C108.417 16.8 105.117 17.6667 102.184 19.4C99.3169 21.0667 97.0503 23.4333 95.3836 26.5C93.7836 29.5 93.0169 32.9 93.0836 36.7C93.0169 40.5667 93.7836 44.0333 95.3836 47.1C97.0503 50.1 99.3169 52.5 102.184 54.3C105.117 56.0333 108.417 56.9 112.084 56.9ZM172.826 64C167.626 64 162.992 62.8333 158.926 60.5C154.926 58.1667 151.759 54.9333 149.426 50.8C147.159 46.6667 146.026 41.9667 146.026 36.7C146.026 31.5 147.159 26.8667 149.426 22.8C151.759 18.7333 154.926 15.5333 158.926 13.2C162.992 10.8667 167.626 9.69999 172.826 9.69999C177.959 9.69999 182.526 10.8667 186.526 13.2C190.592 15.5333 193.759 18.7333 196.026 22.8C198.359 26.8667 199.526 31.5 199.526 36.7C199.526 41.9667 198.359 46.6667 196.026 50.8C193.759 54.9333 190.592 58.1667 186.526 60.5C182.526 62.8333 177.959 64 172.826 64ZM172.826 56.9C176.492 56.9 179.759 56.0333 182.626 54.3C185.492 52.5 187.726 50.1 189.326 47.1C190.926 44.0333 191.726 40.5667 191.726 36.7C191.726 32.8333 190.926 29.4 189.326 26.4C187.726 23.4 185.492 21.0667 182.626 19.4C179.759 17.6667 176.492 16.8 172.826 16.8C169.159 16.8 165.859 17.6667 162.926 19.4C160.059 21.0667 157.792 23.4333 156.126 26.5C154.526 29.5 153.759 32.9 153.826 36.7C153.759 40.5667 154.526 44.0333 156.126 47.1C157.792 50.1 160.059 52.5 162.926 54.3C165.859 56.0333 169.159 56.9 172.826 56.9ZM210.368 63V10.8H217.868L218.068 22.7L216.568 23.2C217.101 21.2 217.968 19.4 219.168 17.8C220.435 16.1333 221.935 14.7 223.668 13.5C225.401 12.3 227.301 11.4 229.368 10.8C231.435 10.1333 233.601 9.8 235.868 9.8C238.601 9.8 241.035 10.2667 243.168 11.2C245.368 12.0667 247.201 13.6 248.668 15.8C250.201 17.9333 251.368 20.7667 252.168 24.3L250.368 23.4L251.068 21.7C251.735 20.1667 252.701 18.7 253.968 17.3C255.301 15.8333 256.801 14.5333 258.468 13.4C260.201 12.2667 262.068 11.4 264.068 10.8C266.135 10.1333 268.235 9.8 270.368 9.8C274.035 9.8 277.135 10.6 279.668 12.2C282.201 13.7333 284.101 16.1 285.368 19.3C286.701 22.5 287.368 26.5667 287.368 31.5V63H279.668V31.9C279.668 28.4333 279.235 25.6 278.368 23.4C277.501 21.2 276.201 19.5667 274.468 18.5C272.801 17.3667 270.668 16.8 268.068 16.8C265.801 16.8 263.701 17.2 261.768 18C259.901 18.7333 258.268 19.8 256.868 21.2C255.535 22.5333 254.468 24.0667 253.668 25.8C252.935 27.5333 252.568 29.4 252.568 31.4V63H244.968V31.8C244.968 28.4667 244.501 25.7 243.568 23.5C242.701 21.3 241.401 19.6333 239.668 18.5C237.935 17.3667 235.801 16.8 233.268 16.8C231.068 16.8 229.035 17.2 227.168 18C225.301 18.7333 223.668 19.7667 222.268 21.1C220.935 22.4333 219.868 23.9667 219.068 25.7C218.335 27.4333 217.968 29.3 217.968 31.3V63H210.368ZM318.681 64C314.215 64 310.215 63.1667 306.681 61.5C303.148 59.8333 300.348 57.6333 298.281 54.9L303.581 50.3C305.515 52.6333 307.781 54.4 310.381 55.6C313.048 56.8 316.015 57.4 319.281 57.4C320.948 57.4 322.448 57.2333 323.781 56.9C325.115 56.5 326.281 55.9333 327.281 55.2C328.281 54.4667 329.048 53.6 329.581 52.6C330.115 51.6 330.381 50.5 330.381 49.3C330.381 47.1 329.415 45.2667 327.481 43.8C326.615 43.2 325.381 42.6 323.781 42C322.181 41.3333 320.248 40.7 317.981 40.1C314.248 39.0333 311.148 37.9667 308.681 36.9C306.215 35.7667 304.281 34.4667 302.881 33C301.881 31.8 301.115 30.5 300.581 29.1C300.115 27.7 299.881 26.1667 299.881 24.5C299.881 22.3667 300.315 20.4 301.181 18.6C302.115 16.8 303.381 15.2333 304.981 13.9C306.648 12.5 308.581 11.4667 310.781 10.8C313.048 10.0667 315.481 9.69999 318.081 9.69999C320.548 9.69999 322.981 10.0333 325.381 10.7C327.781 11.3667 330.015 12.3333 332.081 13.6C334.148 14.8667 335.915 16.3667 337.381 18.1L332.781 23.1C331.515 21.7667 330.115 20.5667 328.581 19.5C327.048 18.4333 325.415 17.6 323.681 17C322.015 16.4 320.281 16.1 318.481 16.1C316.881 16.1 315.381 16.3 313.981 16.7C312.648 17.1 311.481 17.6667 310.481 18.4C309.548 19.0667 308.815 19.9 308.281 20.9C307.815 21.9 307.581 23 307.581 24.2C307.581 25.2 307.781 26.1 308.181 26.9C308.581 27.7 309.148 28.4 309.881 29C310.815 29.7333 312.115 30.4333 313.781 31.1C315.515 31.7 317.648 32.3333 320.181 33C323.115 33.8 325.581 34.6333 327.581 35.5C329.648 36.3 331.348 37.2667 332.681 38.4C334.481 39.7333 335.748 41.2667 336.481 43C337.281 44.7333 337.681 46.7 337.681 48.9C337.681 51.8333 336.848 54.4333 335.181 56.7C333.581 58.9667 331.348 60.7667 328.481 62.1C325.615 63.3667 322.348 64 318.681 64Z" fill="#092C4C"/>
</svg>
